<svg xmlns="http://www.w3.org/2000/svg" version="1.1" xmlns:xlink="http://www.w3.org/1999/xlink" xmlns:svgjs="http://svgjs.dev/svgjs" width="2000" height="792" viewBox="0 0 2000 792"><g transform="matrix(1,0,0,1,-1.2112696095522324,-0.6177780579686214)"><svg viewBox="0 0 396 157" data-background-color="#528265" preserveAspectRatio="xMidYMid meet" height="792" width="2000" xmlns="http://www.w3.org/2000/svg" xmlns:xlink="http://www.w3.org/1999/xlink"><g id="tight-bounds" transform="matrix(1,0,0,1,0.24008861730862918,0.12247703737818938)"><svg viewBox="0 0 395.52 156.75505938294873" height="156.75505938294873" width="395.52"><g><svg viewBox="0 0 395.52 156.75505938294873" height="156.75505938294873" width="395.52"><g><svg viewBox="0 0 395.52 156.75505938294873" height="156.75505938294873" width="395.52"><g id="textblocktransform"><svg viewBox="0 0 395.52 156.75505938294873" height="156.75505938294873" width="395.52" id="textblock"><g><svg viewBox="0 0 395.52 124.38520580902838" height="124.38520580902838" width="395.52"><path d="M394.594 26.678C392.735 13.767 387.435 10.178 387.435 10.178 371.165-3.121 350.86-0.254 332.619 1.656 300.414 1.734 268.339 4.574 236.208 6.098 168.767 6.33 100.749 2.509 33.643 11.934 27.339 14.826-6.54 12.502 1.121 28.331 3.129 34.916 10.456 42.223 10.232 48.266 11.236 49.324 12.631 46.897 13.226 48.421 15.309 52.526 18.711 50.59 21.501 53.017 17.614 59.498 20.403 64.895 23.062 70.55 18.377 72.022 12.371 71.325 9.675 76.205 9.396 79.743 7.89 79.072 6.235 78.917 5.026 78.813 2.59 79.201 2.999 80.311 4.394 84.107-1.594 86.302 2.162 90.02-0.422 94.049 3.948 97.535 3.353 101.899 3.278 102.777 3.687 103.525 4.338 103.732 7.22 104.842 3.018 107.011 3.464 109.361 33.029 125.423 65.104 114.319 95.394 121.704 103.259 116.54 97.346 123.538 100.489 122.453 102.943 121.188 104.728 126.43 107.499 123.46 107.927 122.608 107.276 120.594 108.8 120.981 109.6 121.188 110.307 121.136 110.418 119.948 110.586 118.167 109.117 119.277 108.726 118.347 112.947 113.648 111.906 124.829 115.866 124.364 115.68 122.995 114.528 121.033 116.889 121.291 119.232 119.329 119.306 117.702 121.389 122.117 121.463 123.073 121.835 123.744 122.43 124.209 128.938 119.406 135.409 125.913 142.233 123.744 146.417 121.369 150.433 125.035 154.672 124.132 156.16 123.409 157.666 122.117 159.098 124.286 176.632 124.751 195.319 122.815 211.943 124.364 256.364 121.472 303.836 125.552 350.674 121.73 361.719 120.258 373.192 118.167 383.958 116.488 383.958 116.488 392.679 111.892 392.679 91.234S394.538 73.158 394.817 56.71C395.096 40.261 396.398 39.589 394.538 26.678Z" opacity="1" fill="#000000" data-fill-palette-color="tertiary"></path><g transform="matrix(1,0,0,1,55.76832,26.068561146666667)"><svg width="283.98335999999995" viewBox="0.25 -36.1 167.22 42.550000000000004" height="72.24808351569504" data-palette-color="#528265"><path d="M6.05 0.5L0.25-35.5 4.2-35.5 7.75-3.9 7.95-3.9 10.35-35.5 13.6-35.5 9.35 0 6.05 0.5ZM17.95 0Q16.75 0 16.07-0.48 15.4-0.95 15.4-1.8L15.4-1.8 15.4-26.9Q15.4-29.1 17.95-29.1L17.95-29.1 23.15-29.1Q24.1-29.1 24.7-28.33 25.3-27.55 25.3-26.55L25.3-26.55 25.3-14.5 23.25-12.9 18.85-13.15 18.8-3.25Q18.8-2.85 19.2-2.85L19.2-2.85 22.15-2.8 23-6.1 25.15-6.1 25.15 0 17.95 0ZM18.7-15.9L21.5-15.9Q21.75-15.9 21.85-16 21.95-16.1 21.95-16.45L21.95-16.45 22.25-25.75Q22.25-26.2 21.8-26.2L21.8-26.2 18.9-26.2Q18.6-26.2 18.52-26.1 18.45-26 18.45-25.75L18.45-25.75 18.7-15.9ZM30.75 6.45L28.05 4.2 28.25-2Q28.25-3 28.92-3.5 29.6-4 30.55-4.1L30.55-4.1 30.55-7.45 29.45-8.7 29.25-26.8Q29.2-27.85 30.05-28.48 30.9-29.1 32.05-29.1L32.05-29.1 36.5-29.1 37.65-31.75 39.7-31.75 39.2-28.05 39.4-9.9 37.4-7.5 33-7.4 33-4.1 38.9-4.1 40.55-1.8 40.75 2.9Q40.8 4.45 40.25 5.45 39.7 6.45 38.55 6.45L38.55 6.45 30.75 6.45ZM36.15-10.1L36.2-26.15Q36.2-26.45 35.85-26.4L35.85-26.4 32.65-26Q32.55-26 32.47-25.93 32.4-25.85 32.4-25.7L32.4-25.7 32.4-10.55Q32.4-10.2 32.75-10.2L32.75-10.2 36.15-10.1ZM37.1 3.6Q37.5 3.6 37.5 3.15L37.5 3.15 37.25-0.9Q37.25-1.05 37.12-1.2 37-1.35 36.8-1.35L36.8-1.35 31.75-1.6Q31.35-1.6 31.35-1.25L31.35-1.25 31.25 3.55 37.1 3.6ZM46.34 0Q44.94 0 43.99-0.68 43.04-1.35 43.04-2.35L43.04-2.35 43.09-14.55Q43.04-15.6 43.67-16.23 44.29-16.85 45.29-16.85L45.29-16.85 49.49-16.55 49.64-25.95 49.04-26.25 43.64-26.6 43.64-29.1 50.24-29.1Q51.64-29.1 52.24-28.38 52.84-27.65 52.84-25.85L52.84-25.85 52.69-2.95 53.59-2.45 53.59 0 46.34 0ZM49.24-2.9L49.49-3.3 49.39-13.8 46.59-13.8 46.34-13.5 46.14-3.3Q46.14-3.15 46.22-3.1 46.29-3.05 46.59-3L46.59-3 49.24-2.9ZM57.24 0L57.24-28.1Q58.19-28.7 59.57-28.93 60.94-29.15 63.64-29.15L63.64-29.15Q64.99-29.15 65.84-28.48 66.69-27.8 66.69-26.75L66.69-26.75 66.64 0 63.54 0 63.84-25.8Q63.84-25.95 63.77-26 63.69-26.05 63.39-26.1L63.39-26.1 60.44-26.1 60.14 0 57.24 0ZM82.39 0.5L76.59-35.5 80.54-35.5 84.09-3.9 84.29-3.9 86.69-35.5 89.94-35.5 85.69 0 82.39 0.5ZM94.33 0Q92.93 0 91.98-0.68 91.03-1.35 91.03-2.35L91.03-2.35 91.08-14.55Q91.03-15.6 91.66-16.23 92.28-16.85 93.28-16.85L93.28-16.85 97.48-16.55 97.63-25.95 97.03-26.25 91.63-26.6 91.63-29.1 98.23-29.1Q99.63-29.1 100.23-28.38 100.83-27.65 100.83-25.85L100.83-25.85 100.68-2.95 101.58-2.45 101.58 0 94.33 0ZM97.23-2.9L97.48-3.3 97.38-13.8 94.58-13.8 94.33-13.5 94.13-3.3Q94.13-3.15 94.21-3.1 94.28-3.05 94.58-3L94.58-3 97.23-2.9ZM105.23 0L105.53-32.75 104.48-33.8 104.48-35.5 108.38-35.5 108.73-2.65 109.63-2.1 109.68 0 105.23 0ZM119.73 0.15L120.28-25.65Q120.28-25.9 120.2-26 120.13-26.1 119.83-26.1L119.83-26.1 116.43-26.05 116.78 0 113.48 0 113.18-35.3 114.43-36.1 116.58-36.1 116.48-29.1 121.33-29.1 123.33-27.7 123.33-2.7 124.08-1.85 124.08 0 119.73 0.15ZM130.63 0Q129.23 0 128.28-0.68 127.33-1.35 127.33-2.35L127.33-2.35 127.38-14.55Q127.33-15.6 127.95-16.23 128.58-16.85 129.58-16.85L129.58-16.85 133.78-16.55 133.93-25.95 133.33-26.25 127.93-26.6 127.93-29.1 134.53-29.1Q135.93-29.1 136.53-28.38 137.13-27.65 137.13-25.85L137.13-25.85 136.98-2.95 137.88-2.45 137.88 0 130.63 0ZM133.53-2.9L133.78-3.3 133.68-13.8 130.88-13.8 130.63-13.5 130.43-3.3Q130.43-3.15 130.5-3.1 130.58-3.05 130.88-3L130.88-3 133.53-2.9ZM141.52 0L141.82-32.75 140.77-33.8 140.77-35.5 144.67-35.5 145.02-2.65 145.92-2.1 145.97 0 141.52 0ZM149.47 0L149.77-32.75 148.72-33.8 148.72-35.5 152.62-35.5 152.97-2.65 153.87-2.1 153.92 0 149.47 0ZM160.22 0Q158.82 0 157.87-0.68 156.92-1.35 156.92-2.35L156.92-2.35 156.97-14.55Q156.92-15.6 157.54-16.23 158.17-16.85 159.17-16.85L159.17-16.85 163.37-16.55 163.52-25.95 162.92-26.25 157.52-26.6 157.52-29.1 164.12-29.1Q165.52-29.1 166.12-28.38 166.72-27.65 166.72-25.85L166.72-25.85 166.57-2.95 167.47-2.45 167.47 0 160.22 0ZM163.12-2.9L163.37-3.3 163.27-13.8 160.47-13.8 160.22-13.5 160.02-3.3Q160.02-3.15 160.09-3.1 160.17-3.05 160.47-3L160.47-3 163.12-2.9Z" opacity="1" transform="matrix(1,0,0,1,0,0)" fill="#ffffff" class="wordmark-text-0" data-fill-palette-color="quaternary" id="text-0"></path></svg></g></svg></g><g transform="matrix(1,0,0,1,75.54432,141.4412443730796)"><svg viewBox="0 0 244.43135999999998 15.313815009869142" height="15.313815009869142" width="244.43135999999998"><g transform="matrix(1,0,0,1,0,0)"><svg width="244.43135999999998" viewBox="2.7 -33.5 683.88 42.85" height="15.313815009869142" data-palette-color="#c9efc7"><path d="M12.85-2.75L12.85-2.75Q16.2-2.75 17.93-4.28 19.65-5.8 19.65-8.2L19.65-8.2Q19.65-10.25 18.32-11.6 17-12.95 14.15-13.75L14.15-13.75 9.8-15.05Q7.7-15.7 6.15-16.73 4.6-17.75 3.78-19.28 2.95-20.8 2.95-22.85L2.95-22.85Q2.95-26.7 5.75-28.88 8.55-31.05 13.2-31.05L13.2-31.05Q15.9-31.05 18.03-30.48 20.15-29.9 21.38-29 22.6-28.1 22.6-27.1L22.6-27.1Q22.6-26.45 22.25-25.93 21.9-25.4 21.35-25.1L21.35-25.1Q20.1-26.1 17.98-26.85 15.85-27.6 13.35-27.6L13.35-27.6Q10.45-27.6 8.75-26.33 7.05-25.05 7.05-22.85L7.05-22.85Q7.05-21.1 8.28-20 9.5-18.9 12.25-18.1L12.25-18.1 15.3-17.2Q19.25-16.1 21.53-14 23.8-11.9 23.8-8.2L23.8-8.2Q23.8-4.25 20.93-1.8 18.05 0.65 12.85 0.65L12.85 0.65Q9.8 0.65 7.53-0.03 5.25-0.7 3.98-1.73 2.7-2.75 2.7-3.75L2.7-3.75Q2.7-4.6 3.23-5.18 3.75-5.75 4.45-6L4.45-6Q5.6-4.9 7.7-3.83 9.8-2.75 12.85-2.75ZM38.15 0.7L38.15 0.7Q33.45 0.7 30.87-1.15 28.3-3 28.3-6.5L28.3-6.5Q28.3-9.75 30.47-11.48 32.65-13.2 36.5-13.55L36.5-13.55 43.6-14.25 43.6-15.65Q43.6-18.15 42.1-19.3 40.6-20.45 38.05-20.45L38.05-20.45Q36-20.45 34.12-19.85 32.25-19.25 30.8-18.5L30.8-18.5Q30.4-18.85 30.07-19.33 29.75-19.8 29.75-20.3L29.75-20.3Q29.75-21.6 31.2-22.3L31.2-22.3Q32.55-23 34.32-23.38 36.1-23.75 38.1-23.75L38.1-23.75Q42.45-23.75 45-21.8 47.55-19.85 47.55-15.65L47.55-15.65 47.55-3.8Q47.55-2.7 47.12-2.13 46.7-1.55 45.85-1.05L45.85-1.05Q44.65-0.4 42.65 0.15 40.65 0.7 38.15 0.7ZM38.15-2.6L38.15-2.6Q40.25-2.6 41.62-3.03 43-3.45 43.6-3.85L43.6-3.85 43.6-11.1 37.4-10.45Q34.8-10.25 33.55-9.3 32.3-8.35 32.3-6.55L32.3-6.55Q32.3-4.7 33.77-3.65 35.25-2.6 38.15-2.6ZM72.15-23.55L72.15-23.55Q73-23.55 73.52-23.1 74.05-22.65 74.05-21.8L74.05-21.8Q74.05-21.15 73.5-19.35 72.95-17.55 72.05-15.05 71.15-12.55 70.07-9.83 69-7.1 67.87-4.58 66.75-2.05 65.8-0.2L65.8-0.2Q65.55 0 64.92 0.15 64.3 0.3 63.6 0.3L63.6 0.3Q62.75 0.3 62.1 0.03 61.45-0.25 61.2-0.75L61.2-0.75Q60.65-1.75 59.77-3.68 58.9-5.6 57.9-8.05 56.9-10.5 55.87-13.13 54.85-15.75 54-18.18 53.15-20.6 52.6-22.45L52.6-22.45Q52.95-22.95 53.55-23.25 54.15-23.55 54.75-23.55L54.75-23.55Q55.65-23.55 56.15-23.1 56.65-22.65 57-21.6L57-21.6 60.1-12.65Q60.5-11.5 61.15-9.8 61.8-8.1 62.45-6.4 63.1-4.7 63.5-3.55L63.5-3.55 63.7-3.55Q65.7-8.6 67.45-13.53 69.2-18.45 70.45-23.15L70.45-23.15Q71.09-23.55 72.15-23.55ZM101.04-11.55L101.04-11.55Q101.04-7.85 99.64-5.1 98.24-2.35 95.69-0.85 93.14 0.65 89.69 0.65L89.69 0.65Q86.24 0.65 83.67-0.85 81.09-2.35 79.69-5.1 78.29-7.85 78.29-11.55L78.29-11.55Q78.29-15.3 79.72-18.03 81.14-20.75 83.72-22.25 86.29-23.75 89.69-23.75L89.69-23.75Q93.09-23.75 95.64-22.25 98.19-20.75 99.62-18.03 101.04-15.3 101.04-11.55ZM89.69-20.45L89.69-20.45Q86.34-20.45 84.37-18.07 82.39-15.7 82.39-11.55L82.39-11.55Q82.39-7.35 84.32-5 86.24-2.65 89.69-2.65L89.69-2.65Q93.09-2.65 95.02-5.03 96.94-7.4 96.94-11.55L96.94-11.55Q96.94-15.7 95.02-18.07 93.09-20.45 89.69-20.45ZM111.24-18.8L111.24-18.8 111.24-10.9 107.24-10.9 107.24-18.5Q107.24-19.65 107.67-20.33 108.09-21 109.09-21.65L109.09-21.65Q110.39-22.5 112.64-23.13 114.89-23.75 117.64-23.75L117.64-23.75Q121.64-23.75 121.64-21.75L121.64-21.75Q121.64-21.25 121.49-20.83 121.34-20.4 121.09-20.1L121.09-20.1Q120.59-20.2 119.79-20.3 118.99-20.4 118.19-20.4L118.19-20.4Q115.89-20.4 114.14-19.93 112.39-19.45 111.24-18.8ZM107.24-1.55L107.24-13.2 111.24-12.6 111.24-0.1Q110.99 0 110.49 0.13 109.99 0.25 109.39 0.25L109.39 0.25Q108.34 0.25 107.79-0.18 107.24-0.6 107.24-1.55L107.24-1.55ZM146.19 0.65L146.19 0.65Q144.03 0.65 142.16 0.03 140.28-0.6 139.44-1.35L139.44-1.35 139.44-5.05Q140.44-4.1 141.96-3.38 143.49-2.65 145.64-2.65L145.64-2.65Q149.14-2.65 151.26-4.78 153.39-6.9 153.39-11.6L153.39-11.6Q153.39-14.9 152.31-16.82 151.24-18.75 149.46-19.6 147.69-20.45 145.64-20.45L145.64-20.45Q143.84-20.45 142.59-20 141.34-19.55 140.34-19L140.34-19 140.34-2.4 136.34-2.4 136.34-18.9Q136.34-19.9 136.69-20.5 137.03-21.1 138.14-21.75L138.14-21.75Q139.49-22.5 141.36-23.13 143.24-23.75 145.64-23.75L145.64-23.75Q148.94-23.75 151.61-22.48 154.29-21.2 155.86-18.53 157.44-15.85 157.44-11.6L157.44-11.6Q157.44-7.5 156.01-4.78 154.59-2.05 152.04-0.7 149.49 0.65 146.19 0.65ZM138.49 9.35L138.49 9.35Q137.44 9.35 136.89 8.9 136.34 8.45 136.34 7.5L136.34 7.5 136.34-3.85 140.34-3.75 140.34 9Q140.09 9.1 139.59 9.22 139.09 9.35 138.49 9.35ZM164.03-1.55L164.03-13.2 168.03-12.6 168.03-0.1Q167.78 0 167.28 0.13 166.78 0.25 166.18 0.25L166.18 0.25Q165.13 0.25 164.58-0.18 164.03-0.6 164.03-1.55L164.03-1.55ZM168.03-30.95L168.03-10.7 164.03-11.25 164.03-32.4Q164.28-32.5 164.81-32.63 165.33-32.75 165.88-32.75L165.88-32.75Q166.98-32.75 167.51-32.33 168.03-31.9 168.03-30.95L168.03-30.95ZM184.18 0.7L184.18 0.7Q179.48 0.7 176.91-1.15 174.33-3 174.33-6.5L174.33-6.5Q174.33-9.75 176.51-11.48 178.68-13.2 182.53-13.55L182.53-13.55 189.63-14.25 189.63-15.65Q189.63-18.15 188.13-19.3 186.63-20.45 184.08-20.45L184.08-20.45Q182.03-20.45 180.16-19.85 178.28-19.25 176.83-18.5L176.83-18.5Q176.43-18.85 176.11-19.33 175.78-19.8 175.78-20.3L175.78-20.3Q175.78-21.6 177.23-22.3L177.23-22.3Q178.58-23 180.36-23.38 182.13-23.75 184.13-23.75L184.13-23.75Q188.48-23.75 191.03-21.8 193.58-19.85 193.58-15.65L193.58-15.65 193.58-3.8Q193.58-2.7 193.16-2.13 192.73-1.55 191.88-1.05L191.88-1.05Q190.68-0.4 188.68 0.15 186.68 0.7 184.18 0.7ZM184.18-2.6L184.18-2.6Q186.28-2.6 187.66-3.03 189.03-3.45 189.63-3.85L189.63-3.85 189.63-11.1 183.43-10.45Q180.83-10.25 179.58-9.3 178.33-8.35 178.33-6.55L178.33-6.55Q178.33-4.7 179.81-3.65 181.28-2.6 184.18-2.6ZM220.88-15.25L220.88-15.25 220.88-10.15 216.88-10.15 216.88-15.05Q216.88-17.85 215.3-19.15 213.73-20.45 211.08-20.45L211.08-20.45Q209.08-20.45 207.53-19.95 205.98-19.45 204.88-18.8L204.88-18.8 204.88-10.15 200.88-10.15 200.88-18.6Q200.88-19.65 201.3-20.33 201.73-21 202.78-21.65L202.78-21.65Q204.08-22.4 206.23-23.08 208.38-23.75 211.08-23.75L211.08-23.75Q215.63-23.75 218.25-21.68 220.88-19.6 220.88-15.25ZM200.88-1.55L200.88-12.9 204.88-12.9 204.88-0.1Q204.63 0 204.13 0.13 203.63 0.25 203.03 0.25L203.03 0.25Q201.98 0.25 201.43-0.18 200.88-0.6 200.88-1.55L200.88-1.55ZM216.88-1.55L216.88-12.9 220.88-12.9 220.88-0.1Q220.63 0 220.1 0.13 219.58 0.25 219.03 0.25L219.03 0.25Q217.93 0.25 217.4-0.18 216.88-0.6 216.88-1.55L216.88-1.55ZM228.43-6.05L228.43-13.2 232.43-13.2 232.43-6.3Q232.43-4.3 233.58-3.48 234.73-2.65 236.73-2.65L236.73-2.65Q237.58-2.65 238.63-2.95 239.68-3.25 240.38-3.65L240.38-3.65Q240.68-3.35 240.93-2.9 241.18-2.45 241.18-1.85L241.18-1.85Q241.18-0.75 239.88-0.05 238.58 0.65 236.28 0.65L236.28 0.65Q232.78 0.65 230.6-0.9 228.43-2.45 228.43-6.05L228.43-6.05ZM239.58-19.3L230.48-19.3 230.48-22.6 240.63-22.6Q240.78-22.4 240.93-21.95 241.08-21.5 241.08-21L241.08-21Q241.08-20.2 240.68-19.75 240.28-19.3 239.58-19.3L239.58-19.3ZM232.43-28.35L232.43-11.7 228.43-11.7 228.43-29.8Q228.68-29.9 229.2-30.03 229.73-30.15 230.33-30.15L230.33-30.15Q231.38-30.15 231.9-29.73 232.43-29.3 232.43-28.35L232.43-28.35ZM258.22-11.4L258.22-11.4 246.27-11.4Q246.12-11.75 246.02-12.13 245.92-12.5 245.92-13L245.92-13Q245.92-13.85 246.4-14.28 246.87-14.7 247.67-14.7L247.67-14.7 259.62-14.7Q259.72-14.4 259.85-14 259.97-13.6 259.97-13.15L259.97-13.15Q259.97-12.35 259.52-11.88 259.07-11.4 258.22-11.4ZM276.27 0.65L276.27 0.65Q274.12 0.65 272.25 0.03 270.37-0.6 269.52-1.35L269.52-1.35 269.52-5.05Q270.52-4.1 272.05-3.38 273.57-2.65 275.72-2.65L275.72-2.65Q279.22-2.65 281.35-4.78 283.47-6.9 283.47-11.6L283.47-11.6Q283.47-14.9 282.4-16.82 281.32-18.75 279.55-19.6 277.77-20.45 275.72-20.45L275.72-20.45Q273.92-20.45 272.67-20 271.42-19.55 270.42-19L270.42-19 270.42-2.4 266.42-2.4 266.42-18.9Q266.42-19.9 266.77-20.5 267.12-21.1 268.22-21.75L268.22-21.75Q269.57-22.5 271.45-23.13 273.32-23.75 275.72-23.75L275.72-23.75Q279.02-23.75 281.7-22.48 284.37-21.2 285.95-18.53 287.52-15.85 287.52-11.6L287.52-11.6Q287.52-7.5 286.1-4.78 284.67-2.05 282.12-0.7 279.57 0.65 276.27 0.65ZM268.57 9.35L268.57 9.35Q267.52 9.35 266.97 8.9 266.42 8.45 266.42 7.5L266.42 7.5 266.42-3.85 270.42-3.75 270.42 9Q270.17 9.1 269.67 9.22 269.17 9.35 268.57 9.35ZM315.17-11.55L315.17-11.55Q315.17-7.85 313.77-5.1 312.37-2.35 309.82-0.85 307.27 0.65 303.82 0.65L303.82 0.65Q300.37 0.65 297.79-0.85 295.22-2.35 293.82-5.1 292.42-7.85 292.42-11.55L292.42-11.55Q292.42-15.3 293.84-18.03 295.27-20.75 297.84-22.25 300.42-23.75 303.82-23.75L303.82-23.75Q307.22-23.75 309.77-22.25 312.32-20.75 313.74-18.03 315.17-15.3 315.17-11.55ZM303.82-20.45L303.82-20.45Q300.47-20.45 298.49-18.07 296.52-15.7 296.52-11.55L296.52-11.55Q296.52-7.35 298.44-5 300.37-2.65 303.82-2.65L303.82-2.65Q307.22-2.65 309.14-5.03 311.07-7.4 311.07-11.55L311.07-11.55Q311.07-15.7 309.14-18.07 307.22-20.45 303.82-20.45ZM335.92-17.2L335.92-17.2Q335.02-14.05 333.99-10.9 332.97-7.75 332.02-5 331.07-2.25 330.27-0.25L330.27-0.25Q329.87 0 329.37 0.15 328.87 0.3 328.02 0.3L328.02 0.3Q327.22 0.3 326.54 0.03 325.87-0.25 325.62-0.85L325.62-0.85Q325.12-1.85 324.49-3.75 323.87-5.65 323.19-8.1 322.52-10.55 321.82-13.18 321.12-15.8 320.54-18.25 319.97-20.7 319.57-22.6L319.57-22.6Q319.92-22.95 320.44-23.25 320.97-23.55 321.72-23.55L321.72-23.55Q322.67-23.55 323.14-23.03 323.62-22.5 323.82-21.35L323.82-21.35Q324.27-19.25 324.84-16.6 325.42-13.95 326.04-11.35 326.67-8.75 327.19-6.68 327.72-4.6 327.97-3.6L327.97-3.6 328.17-3.6Q328.57-4.8 329.42-7.53 330.27-10.25 331.44-13.75 332.62-17.25 333.82-20.85L333.82-20.85Q334.22-21.1 334.77-21.23 335.32-21.35 335.97-21.35L335.97-21.35Q336.87-21.35 337.47-21.03 338.07-20.7 338.27-20.05L338.27-20.05Q339.47-16.6 340.52-13.28 341.57-9.95 342.37-7.38 343.17-4.8 343.52-3.55L343.52-3.55 343.77-3.55Q344.92-8 346.27-13.1 347.62-18.2 348.47-23.1L348.47-23.1Q349.17-23.55 350.17-23.55L350.17-23.55Q351.02-23.55 351.52-23.15 352.02-22.75 352.02-21.9L352.02-21.9Q352.02-21.35 351.69-19.8 351.37-18.25 350.82-16.15 350.27-14.05 349.59-11.68 348.92-9.3 348.22-7.08 347.52-4.85 346.89-3.05 346.27-1.25 345.82-0.25L345.82-0.25Q345.57-0.05 344.99 0.13 344.42 0.3 343.67 0.3L343.67 0.3Q341.62 0.3 341.27-0.65L341.27-0.65Q340.57-2.45 339.67-5.13 338.77-7.8 337.82-10.93 336.87-14.05 335.92-17.2ZM376.06-11.35L359.26-9 359.06-12.15 374.16-14.2Q373.96-16.95 372.26-18.73 370.56-20.5 367.56-20.5L367.56-20.5Q364.46-20.5 362.44-18.28 360.41-16.05 360.41-11.9L360.41-11.9 360.41-10.8Q360.76-6.8 363.04-4.73 365.31-2.65 369.26-2.65L369.26-2.65Q371.36-2.65 373.06-3.35 374.76-4.05 375.76-4.85L375.76-4.85Q376.31-4.5 376.64-4.03 376.96-3.55 376.96-2.95L376.96-2.95Q376.96-2 375.89-1.18 374.81-0.35 373.04 0.15 371.26 0.65 369.06 0.65L369.06 0.65Q365.21 0.65 362.39-0.75 359.56-2.15 358.04-4.93 356.51-7.7 356.51-11.7L356.51-11.7Q356.51-14.55 357.34-16.78 358.16-19 359.64-20.55 361.11-22.1 363.16-22.93 365.21-23.75 367.61-23.75L367.61-23.75Q370.66-23.75 372.99-22.45 375.31-21.15 376.64-18.82 377.96-16.5 377.96-13.5L377.96-13.5Q377.96-12.4 377.46-11.93 376.96-11.45 376.06-11.35L376.06-11.35ZM387.76-18.8L387.76-18.8 387.76-10.9 383.76-10.9 383.76-18.5Q383.76-19.65 384.19-20.33 384.61-21 385.61-21.65L385.61-21.65Q386.91-22.5 389.16-23.13 391.41-23.75 394.16-23.75L394.16-23.75Q398.16-23.75 398.16-21.75L398.16-21.75Q398.16-21.25 398.01-20.83 397.86-20.4 397.61-20.1L397.61-20.1Q397.11-20.2 396.31-20.3 395.51-20.4 394.71-20.4L394.71-20.4Q392.41-20.4 390.66-19.93 388.91-19.45 387.76-18.8ZM383.76-1.55L383.76-13.2 387.76-12.6 387.76-0.1Q387.51 0 387.01 0.13 386.51 0.25 385.91 0.25L385.91 0.25Q384.86 0.25 384.31-0.18 383.76-0.6 383.76-1.55L383.76-1.55ZM421.11-11.35L404.31-9 404.11-12.15 419.21-14.2Q419.01-16.95 417.31-18.73 415.61-20.5 412.61-20.5L412.61-20.5Q409.51-20.5 407.48-18.28 405.46-16.05 405.46-11.9L405.46-11.9 405.46-10.8Q405.81-6.8 408.08-4.73 410.36-2.65 414.31-2.65L414.31-2.65Q416.41-2.65 418.11-3.35 419.81-4.05 420.81-4.85L420.81-4.85Q421.36-4.5 421.68-4.03 422.01-3.55 422.01-2.95L422.01-2.95Q422.01-2 420.93-1.18 419.86-0.35 418.08 0.15 416.31 0.65 414.11 0.65L414.11 0.65Q410.26 0.65 407.43-0.75 404.61-2.15 403.08-4.93 401.56-7.7 401.56-11.7L401.56-11.7Q401.56-14.55 402.38-16.78 403.21-19 404.68-20.55 406.16-22.1 408.21-22.93 410.26-23.75 412.66-23.75L412.66-23.75Q415.71-23.75 418.03-22.45 420.36-21.15 421.68-18.82 423.01-16.5 423.01-13.5L423.01-13.5Q423.01-12.4 422.51-11.93 422.01-11.45 421.11-11.35L421.11-11.35ZM444.56-3.95L444.56-3.95 444.56-20.75 448.56-20.8 448.56-3.8Q448.56-2.85 448.13-2.27 447.71-1.7 446.81-1.15L446.81-1.15Q445.81-0.5 443.96 0.08 442.11 0.65 439.71 0.65L439.71 0.65Q436.11 0.65 433.36-0.6 430.61-1.85 429.06-4.53 427.51-7.2 427.51-11.45L427.51-11.45Q427.51-15.8 429.03-18.5 430.56-21.2 433.16-22.48 435.76-23.75 438.86-23.75L438.86-23.75Q440.81-23.75 442.56-23.2 444.31-22.65 445.31-21.85L445.31-21.85 445.31-18.15Q444.36-19.1 442.83-19.78 441.31-20.45 439.26-20.45L439.26-20.45Q437.21-20.45 435.46-19.58 433.71-18.7 432.66-16.7 431.61-14.7 431.61-11.35L431.61-11.35Q431.61-6.8 433.81-4.73 436.01-2.65 439.66-2.65L439.66-2.65Q441.41-2.65 442.53-3.03 443.66-3.4 444.56-3.95ZM448.56-30.95L448.56-19.8 444.56-19.75 444.56-32.4Q444.81-32.5 445.33-32.63 445.86-32.75 446.41-32.75L446.41-32.75Q447.51-32.75 448.03-32.33 448.56-31.9 448.56-30.95L448.56-30.95ZM476 0.65L476 0.65Q473.85 0.65 471.98 0.03 470.1-0.6 469.25-1.35L469.25-1.35 469.25-5.05Q470.25-4.1 471.78-3.38 473.3-2.65 475.45-2.65L475.45-2.65Q478.95-2.65 481.08-4.78 483.2-6.9 483.2-11.6L483.2-11.6Q483.2-14.9 482.13-16.82 481.05-18.75 479.28-19.6 477.5-20.45 475.45-20.45L475.45-20.45Q473.65-20.45 472.4-20 471.15-19.55 470.15-19L470.15-19 470.15-2.4 466.15-2.4 466.15-18.9Q466.15-19.9 466.5-20.5 466.85-21.1 467.95-21.75L467.95-21.75Q469.3-22.5 471.18-23.13 473.05-23.75 475.45-23.75L475.45-23.75Q478.75-23.75 481.43-22.48 484.1-21.2 485.68-18.53 487.25-15.85 487.25-11.6L487.25-11.6Q487.25-7.5 485.83-4.78 484.4-2.05 481.85-0.7 479.3 0.65 476 0.65ZM468.3 9.35L468.3 9.35Q467.25 9.35 466.7 8.9 466.15 8.45 466.15 7.5L466.15 7.5 466.15-3.85 470.15-3.75 470.15 9Q469.9 9.1 469.4 9.22 468.9 9.35 468.3 9.35ZM511.7-11.35L494.9-9 494.7-12.15 509.8-14.2Q509.6-16.95 507.9-18.73 506.2-20.5 503.2-20.5L503.2-20.5Q500.1-20.5 498.07-18.28 496.05-16.05 496.05-11.9L496.05-11.9 496.05-10.8Q496.4-6.8 498.67-4.73 500.95-2.65 504.9-2.65L504.9-2.65Q507-2.65 508.7-3.35 510.4-4.05 511.4-4.85L511.4-4.85Q511.95-4.5 512.27-4.03 512.6-3.55 512.6-2.95L512.6-2.95Q512.6-2 511.52-1.18 510.45-0.35 508.67 0.15 506.9 0.65 504.7 0.65L504.7 0.65Q500.85 0.65 498.02-0.75 495.2-2.15 493.67-4.93 492.15-7.7 492.15-11.7L492.15-11.7Q492.15-14.55 492.97-16.78 493.8-19 495.27-20.55 496.75-22.1 498.8-22.93 500.85-23.75 503.25-23.75L503.25-23.75Q506.3-23.75 508.62-22.45 510.95-21.15 512.27-18.82 513.6-16.5 513.6-13.5L513.6-13.5Q513.6-12.4 513.1-11.93 512.6-11.45 511.7-11.35L511.7-11.35ZM523.4-18.8L523.4-18.8 523.4-10.9 519.4-10.9 519.4-18.5Q519.4-19.65 519.82-20.33 520.25-21 521.25-21.65L521.25-21.65Q522.55-22.5 524.8-23.13 527.05-23.75 529.8-23.75L529.8-23.75Q533.8-23.75 533.8-21.75L533.8-21.75Q533.8-21.25 533.65-20.83 533.5-20.4 533.25-20.1L533.25-20.1Q532.75-20.2 531.95-20.3 531.15-20.4 530.35-20.4L530.35-20.4Q528.05-20.4 526.3-19.93 524.55-19.45 523.4-18.8ZM519.4-1.55L519.4-13.2 523.4-12.6 523.4-0.1Q523.15 0 522.65 0.13 522.15 0.25 521.55 0.25L521.55 0.25Q520.5 0.25 519.95-0.18 519.4-0.6 519.4-1.55L519.4-1.55ZM551.34-18.55L541.84-18.55 541.84-21.8 552.44-21.8Q552.59-21.6 552.74-21.18 552.89-20.75 552.89-20.2L552.89-20.2Q552.89-19.4 552.49-18.98 552.09-18.55 551.34-18.55L551.34-18.55ZM542.54-24.95L542.54-24.95 542.54-19.1 538.59-19.1 538.59-25.15Q538.59-28.1 539.67-29.93 540.74-31.75 542.77-32.63 544.79-33.5 547.59-33.5L547.59-33.5Q550.44-33.5 552.07-32.75 553.69-32 553.69-30.9L553.69-30.9Q553.69-30.35 553.47-29.9 553.24-29.45 552.84-29.05L552.84-29.05Q551.94-29.55 550.59-29.88 549.24-30.2 547.99-30.2L547.99-30.2Q544.94-30.2 543.74-28.95 542.54-27.7 542.54-24.95ZM538.59-1.55L538.59-21.3 542.59-21.3 542.59-0.1Q542.34 0 541.84 0.13 541.34 0.25 540.74 0.25L540.74 0.25Q539.69 0.25 539.14-0.18 538.59-0.6 538.59-1.55L538.59-1.55ZM576.69-11.35L559.89-9 559.69-12.15 574.79-14.2Q574.59-16.95 572.89-18.73 571.19-20.5 568.19-20.5L568.19-20.5Q565.09-20.5 563.07-18.28 561.04-16.05 561.04-11.9L561.04-11.9 561.04-10.8Q561.39-6.8 563.67-4.73 565.94-2.65 569.89-2.65L569.89-2.65Q571.99-2.65 573.69-3.35 575.39-4.05 576.39-4.85L576.39-4.85Q576.94-4.5 577.27-4.03 577.59-3.55 577.59-2.95L577.59-2.95Q577.59-2 576.52-1.18 575.44-0.35 573.67 0.15 571.89 0.65 569.69 0.65L569.69 0.65Q565.84 0.65 563.02-0.75 560.19-2.15 558.67-4.93 557.14-7.7 557.14-11.7L557.14-11.7Q557.14-14.55 557.97-16.78 558.79-19 560.27-20.55 561.74-22.1 563.79-22.93 565.84-23.75 568.24-23.75L568.24-23.75Q571.29-23.75 573.62-22.45 575.94-21.15 577.27-18.82 578.59-16.5 578.59-13.5L578.59-13.5Q578.59-12.4 578.09-11.93 577.59-11.45 576.69-11.35L576.69-11.35ZM595.09-20.4L595.09-20.4Q591.69-20.4 589.44-18.1 587.19-15.8 587.19-11.5L587.19-11.5Q587.19-7.25 589.36-4.95 591.54-2.65 595.09-2.65L595.09-2.65Q597.19-2.65 598.59-3.23 599.99-3.8 601.09-4.55L601.09-4.55Q601.64-4.25 601.99-3.8 602.34-3.35 602.34-2.7L602.34-2.7Q602.34-1.3 600.26-0.33 598.19 0.65 595.09 0.65L595.09 0.65Q591.64 0.65 588.91-0.68 586.19-2 584.64-4.7 583.09-7.4 583.09-11.5L583.09-11.5Q583.09-15.55 584.69-18.28 586.29-21 589.01-22.38 591.74-23.75 594.99-23.75L594.99-23.75Q598.09-23.75 600.11-22.7 602.14-21.65 602.14-20.3L602.14-20.3Q602.14-19.7 601.79-19.25 601.44-18.8 600.89-18.55L600.89-18.55Q599.79-19.3 598.46-19.85 597.14-20.4 595.09-20.4ZM608.33-6.05L608.33-13.2 612.33-13.2 612.33-6.3Q612.33-4.3 613.49-3.48 614.63-2.65 616.63-2.65L616.63-2.65Q617.49-2.65 618.53-2.95 619.58-3.25 620.28-3.65L620.28-3.65Q620.58-3.35 620.83-2.9 621.08-2.45 621.08-1.85L621.08-1.85Q621.08-0.75 619.78-0.05 618.49 0.65 616.18 0.65L616.18 0.65Q612.68 0.65 610.51-0.9 608.33-2.45 608.33-6.05L608.33-6.05ZM619.49-19.3L610.38-19.3 610.38-22.6 620.53-22.6Q620.68-22.4 620.83-21.95 620.99-21.5 620.99-21L620.99-21Q620.99-20.2 620.58-19.75 620.18-19.3 619.49-19.3L619.49-19.3ZM612.33-28.35L612.33-11.7 608.33-11.7 608.33-29.8Q608.58-29.9 609.11-30.03 609.63-30.15 610.24-30.15L610.24-30.15Q611.28-30.15 611.81-29.73 612.33-29.3 612.33-28.35L612.33-28.35ZM626.53-30.4L626.53-30.4Q626.53-31.45 627.28-32.18 628.03-32.9 629.13-32.9L629.13-32.9Q630.28-32.9 630.98-32.18 631.68-31.45 631.68-30.4L631.68-30.4Q631.68-29.35 630.98-28.63 630.28-27.9 629.13-27.9L629.13-27.9Q628.03-27.9 627.28-28.63 626.53-29.35 626.53-30.4ZM627.13-1.55L627.13-13.2 631.13-13.2 631.13-0.1Q630.88 0 630.38 0.13 629.88 0.25 629.28 0.25L629.28 0.25Q628.23 0.25 627.68-0.18 627.13-0.6 627.13-1.55L627.13-1.55ZM631.13-21.5L631.13-11.25 627.13-11.25 627.13-23Q627.38-23.1 627.91-23.23 628.43-23.35 629.03-23.35L629.03-23.35Q630.08-23.35 630.61-22.93 631.13-22.5 631.13-21.5L631.13-21.5ZM660.38-11.55L660.38-11.55Q660.38-7.85 658.98-5.1 657.58-2.35 655.03-0.85 652.48 0.65 649.03 0.65L649.03 0.65Q645.58 0.65 643-0.85 640.43-2.35 639.03-5.1 637.63-7.85 637.63-11.55L637.63-11.55Q637.63-15.3 639.05-18.03 640.48-20.75 643.05-22.25 645.63-23.75 649.03-23.75L649.03-23.75Q652.43-23.75 654.98-22.25 657.53-20.75 658.95-18.03 660.38-15.3 660.38-11.55ZM649.03-20.45L649.03-20.45Q645.68-20.45 643.7-18.07 641.73-15.7 641.73-11.55L641.73-11.55Q641.73-7.35 643.65-5 645.58-2.65 649.03-2.65L649.03-2.65Q652.43-2.65 654.35-5.03 656.28-7.4 656.28-11.55L656.28-11.55Q656.28-15.7 654.35-18.07 652.43-20.45 649.03-20.45ZM686.58-15.25L686.58-15.25 686.58-10.15 682.58-10.15 682.58-15.05Q682.58-17.85 681-19.15 679.43-20.45 676.78-20.45L676.78-20.45Q674.78-20.45 673.23-19.95 671.68-19.45 670.58-18.8L670.58-18.8 670.58-10.15 666.58-10.15 666.58-18.6Q666.58-19.65 667-20.33 667.43-21 668.48-21.65L668.48-21.65Q669.78-22.4 671.93-23.08 674.08-23.75 676.78-23.75L676.78-23.75Q681.33-23.75 683.95-21.68 686.58-19.6 686.58-15.25ZM666.58-1.55L666.58-12.9 670.58-12.9 670.58-0.1Q670.33 0 669.83 0.13 669.33 0.25 668.73 0.25L668.73 0.25Q667.68 0.25 667.13-0.18 666.58-0.6 666.58-1.55L666.58-1.55ZM682.58-1.55L682.58-12.9 686.58-12.9 686.58-0.1Q686.33 0 685.8 0.13 685.28 0.25 684.73 0.25L684.73 0.25Q683.63 0.25 683.1-0.18 682.58-0.6 682.58-1.55L682.58-1.55Z" opacity="1" transform="matrix(1,0,0,1,0,0)" fill="#000000" class="slogan-text-1" data-fill-palette-color="secondary" id="text-1"></path></svg></g></svg></g></svg></g></svg></g><g></g></svg></g><defs></defs></svg><rect width="395.52" height="156.75505938294873" fill="none" stroke="none" visibility="hidden"></rect></g></svg></g></svg>